PathFileType	4	(X/Y/Z)	C:/Users/opensim2020/Desktop/walking_exp_matlab/subject03_walking09_straight_03.trc																																																																																																																																											
DataRate	CameraRate	NumFrames	NumMarkers	Units	OrigDataRate	OrigDataStartFrame	OrigNumFrames																																																																																																																																							
100	100	5	47	mm	100	3131	383																																																																																																																																							
Frame#	Time	LFHD			RFHD			LBHD			RBHD			C7			T10			CLAV			STRN			RBAK			LSHO			LUPA			LELB			LFRM			LWRA			LWRB			LFIN			RSHO			RUPA			RELB			RFRM			RWRA			RWRB			RFIN			LASI			RASI			LPSI			RPSI			LTHI			LKNE			LTIB			LANK			LHEE			LTOE			RTHI			RKNE			RTIB			RANK			RHEE			RTOE			*39			*40			*41			*42			*43			*44			*45			*46		
		X1	Y1	Z1	X2	Y2	Z2	X3	Y3	Z3	X4	Y4	Z4	X5	Y5	Z5	X6	Y6	Z6	X7	Y7	Z7	X8	Y8	Z8	X9	Y9	Z9	X10	Y10	Z10	X11	Y11	Z11	X12	Y12	Z12	X13	Y13	Z13	X14	Y14	Z14	X15	Y15	Z15	X16	Y16	Z16	X17	Y17	Z17	X18	Y18	Z18	X19	Y19	Z19	X20	Y20	Z20	X21	Y21	Z21	X22	Y22	Z22	X23	Y23	Z23	X24	Y24	Z24	X25	Y25	Z25	X26	Y26	Z26	X27	Y27	Z27	X28	Y28	Z28	X29	Y29	Z29	X30	Y30	Z30	X31	Y31	Z31	X32	Y32	Z32	X33	Y33	Z33	X34	Y34	Z34	X35	Y35	Z35	X36	Y36	Z36	X37	Y37	Z37	X38	Y38	Z38	X39	Y39	Z39	X40	Y40	Z40	X41	Y41	Z41	X42	Y42	Z42	X43	Y43	Z43	X44	Y44	Z44	X45	Y45	Z45	X46	Y46	Z46	X47	Y47	Z47
																																																																																																																																														
336	3.35	1420.28589	1621.0155	-1050.20996	1381.82458	1619.0033	-922.54993	1298.1925	1573.01807	-1084.08704	1264.66882	1570.32446	-958.15247	1254.14746	1413.31274	-1039.21497	1223.89526	1099.49731	-1044.80322	1372.96436	1337.08911	-1013.50867	1418.57703	1172.72314	-1012.29608	1183.68018	1235.8363	-958.42163	1363.50415	1375.80188	-1173.30334	1399.58215	1186.12256	-1249.73535	1434.91602	1068.83057	-1262.61694	1490.58008	951.46655	-1253.43799	1529.55688	841.16125	-1218.07043	1520.98438	843.04034	-1272.95947	1555.72656	767.24994	-1259.03345	1295.83008	1357.02136	-866.18066	1289.24194	1134.1106	-795.43677	1306.75635	1023.31287	-778.63898	1331.18115	888.57233	-773.26074	1374.672	796.23743	-801.58337	1334.98987	788.19128	-765.39734	1364.3562	719.07825	-770.58667	1406.38135	938.26434	-1136.6084	1372.1814	936.48999	-899.78546	1238.62988	962.71063	-1107.55762	1218.1543	962.5144	-960.41449	1339.91223	636.75421	-1172.67554	1323.92212	459.77325	-1129.27625	1260.10632	274.66119	-1132.96118	1226.25024	67.32443	-1088.00806	1181.95264	33.99905	-1054.32312	1376.4397	29.44987	-1054.75488	1386.80908	647.10828	-852.85077	1467.35767	484.63162	-878.34058	1419.16418	299.53745	-880.81677	1381.31799	87.92806	-929.40265	1338.97546	58.30145	-986.43481	1513.3313	40.34365	-933.41333	1323.79504	1675.58789	-1022.17389	NaN	NaN	NaN	NaN	NaN	NaN	NaN	NaN	NaN	NaN	NaN	NaN	NaN	NaN	NaN	NaN	NaN	NaN	NaN	NaN	NaN
337	3.36	1426.78882	1620.63074	-1049.44202	1387.84204	1618.28857	-921.68536	1304.54688	1572.24939	-1083.41626	1270.73254	1569.44482	-957.58484	1260.54663	1412.73743	-1038.7821	1229.82349	1098.87683	-1044.31506	1379.19409	1336.31299	-1012.85333	1424.6228	1171.89038	-1011.76154	1189.60913	1235.31897	-958.25281	1370.11755	1375.26843	-1172.52979	1407.3645	1186.15198	-1249.04492	1443.64233	1069.14966	-1261.76831	1500.85645	952.64868	-1252.00146	1541.15234	843.0683	-1215.93933	1532.82959	844.58093	-1270.99426	1568.72742	769.45673	-1256.4314	1301.7063	1356.14526	-865.72003	1294.37671	1133.29834	-795.14435	1311.57727	1022.41998	-778.39178	1335.62012	887.60382	-772.948	1379.0144	795.13965	-801.05597	1339.08313	787.22119	-765.1236	1368.39355	718.05676	-769.98669	1412.30249	937.65936	-1136.34106	1378.2998	935.59241	-899.48895	1244.66003	962.03271	-1107.17297	1224.1825	961.62854	-960.04041	1344.26746	636.46497	-1172.2085	1326.82056	459.9014	-1129.18225	1261.4436	274.81406	-1132.6217	1226.33435	67.78473	-1087.71582	1182.02502	34.54129	-1054.04956	1376.50061	29.4802	-1054.82104	1392.14722	645.95343	-852.50067	1473.88379	483.92682	-878.60303	1432.18091	297.56015	-881.13257	1403.29248	84.42012	-929.90881	1362.88367	53.6515	-987.32184	1537.08508	41.1878	-932.84509	1329.87915	1674.84241	-1021.36127	NaN	NaN	NaN	NaN	NaN	NaN	NaN	NaN	NaN	NaN	NaN	NaN	NaN	NaN	NaN	NaN	NaN	NaN	NaN	NaN	NaN
338	3.37	1432.93176	1619.86658	-1048.41467	1393.83081	1617.49817	-920.79938	1310.85339	1571.41406	-1082.63843	1276.8175	1568.5741	-956.94727	1266.88904	1412.05237	-1038.26172	1235.79956	1098.25549	-1043.73096	1385.4137	1335.48462	-1012.13037	1430.71838	1170.99719	-1011.15997	1195.64722	1234.6615	-957.96777	1376.70007	1374.5365	-1171.59082	1415.04797	1186.04797	-1248.23401	1452.30139	1069.40906	-1260.96338	1510.90649	953.74457	-1250.42578	1552.44983	844.86517	-1213.60779	1544.31201	845.98883	-1268.65015	1581.43921	771.58136	-1253.60132	1307.67505	1355.29407	-865.12122	1299.6615	1132.41479	-794.81598	1316.49231	1021.44714	-778.06799	1340.1571	886.60791	-772.59656	1383.44995	793.99945	-800.5	1343.20374	786.21191	-764.58667	1372.5166	717.00958	-769.56702	1418.43958	937.21399	-1136.00366	1384.34558	934.57343	-899.08411	1250.672	961.38007	-1106.76025	1230.20105	960.68799	-959.65265	1348.69666	636.28064	-1171.72791	1329.72961	459.7916	-1129.14832	1262.78186	275.12378	-1132.56287	1226.46118	68.18375	-1087.66528	1182.08765	35.11671	-1053.76685	1376.45483	29.23236	-1054.76953	1397.36609	644.6391	-852.12524	1480.09863	482.97507	-878.81927	1444.65601	295.67163	-881.51849	1424.89807	81.51145	-930.32629	1386.17993	49.47968	-988.23309	1560.0719	42.26547	-932.11725	1336.00122	1674.05566	-1020.57727	NaN	NaN	NaN	NaN	NaN	NaN	NaN	NaN	NaN	NaN	NaN	NaN	NaN	NaN	NaN	NaN	NaN	NaN	NaN	NaN	NaN
339	3.38	1439.07056	1619.10938	-1047.20544	1399.87708	1616.65649	-919.83069	1317.18188	1570.43066	-1081.79285	1282.97144	1567.60327	-956.17908	1273.21228	1411.32385	-1037.67065	1241.82104	1097.53149	-1043.14954	1391.68445	1334.61389	-1011.37445	1436.8385	1170.09607	-1010.48895	1201.6543	1233.92993	-957.58221	1383.2345	1373.8833	-1170.71167	1422.54395	1185.81873	-1247.36707	1460.75439	1069.58496	-1260.04895	1520.73083	954.74316	-1248.77966	1563.47974	846.60413	-1211.16309	1555.72913	847.36554	-1266.27478	1593.89368	773.70825	-1250.63953	1313.66321	1354.33167	-864.52716	1304.84509	1131.32886	-794.56158	1321.70752	1020.38275	-777.88654	1344.85193	885.45465	-772.20654	1387.99329	792.77087	-799.95898	1347.54395	785.1001	-764.26709	1376.65564	715.85126	-769.01349	1424.05823	936.49042	-1135.53467	1390.4425	933.53955	-898.58612	1256.76501	960.72089	-1106.2699	1236.21912	959.63324	-959.19843	1353.23059	636.04529	-1171.2782	1332.78784	459.6199	-1129.06323	1264.37305	275.35617	-1132.36304	1226.69714	68.42087	-1087.49561	1182.14307	35.70416	-1053.57349	1376.43103	29.06645	-1054.74011	1402.48401	643.22217	-851.61603	1485.99744	481.86902	-879.10846	1456.56763	293.90198	-882.00287	1445.70825	78.79725	-930.99292	1408.87622	46.07029	-989.20032	1582.32214	43.41195	-931.20715	1342.13135	1673.198	-1019.75995	NaN	NaN	NaN	NaN	NaN	NaN	NaN	NaN	NaN	NaN	NaN	NaN	NaN	NaN	NaN	NaN	NaN	NaN	NaN	NaN	NaN
340	3.39	1445.34619	1618.37769	-1046.20239	1405.87158	1615.82019	-918.78815	1323.52954	1569.57678	-1080.98389	1289.15491	1566.6189	-955.37903	1279.65369	1410.51404	-1037.00317	1247.88696	1096.69531	-1042.50989	1397.91101	1333.68689	-1010.53558	1442.99768	1169.19421	-1009.76709	1207.69702	1233.19617	-957.15045	1389.76648	1373.1991	-1169.82361	1430.06921	1185.56995	-1246.52905	1469.03149	1069.58765	-1259.05493	1530.32849	955.61511	-1247.06934	1574.19324	848.21576	-1208.62756	1566.84326	848.64441	-1263.81677	1606.03821	775.69775	-1247.52319	1319.62146	1353.36255	-863.83691	1310.38074	1130.30176	-794.16528	1326.88318	1019.31262	-777.50238	1349.64685	884.3269	-771.79889	1392.63806	791.51147	-799.40985	1351.99854	783.94562	-763.94434	1380.89648	714.60101	-768.55811	1430.14502	935.92865	-1135.09009	1396.56738	932.49377	-898.05896	1262.8689	960.01898	-1105.78711	1242.26025	958.49976	-958.76184	1357.8645	635.73773	-1170.94482	1336.15515	459.42007	-1129.10132	1266.11389	275.57306	-1132.40247	1226.82434	68.8634	-1087.47656	1182.3512	36.16632	-1053.41199	1376.34387	28.92078	-1054.69031	1407.51868	641.70306	-851.07886	1491.66492	480.63446	-879.40039	1467.87451	292.33148	-882.59534	1465.97473	76.9077	-931.51971	1430.90271	43.52672	-990.27527	1603.71631	44.54953	-930.02753	1348.23596	1672.27209	-1018.82184	NaN	NaN	NaN	NaN	NaN	NaN	NaN	NaN	NaN	NaN	NaN	NaN	NaN	NaN	NaN	NaN	NaN	NaN	NaN	NaN	NaN
